IKResults
version=1
nRows=24
nColumns=24
inDegrees=yes

Units are S.I. units (second, meters, Newtons, ...)
Angles are in degrees.

endheader
time	pelvis_tilt	pelvis_list	pelvis_rotation	pelvis_tx	pelvis_ty	pelvis_tz	hip_flexion_r	hip_adduction_r	hip_rotation_r	knee_angle_r	ankle_angle_r	subtalar_angle_r	mtp_angle_r	hip_flexion_l	hip_adduction_l	hip_rotation_l	knee_angle_l	ankle_angle_l	subtalar_angle_l	mtp_angle_l	lumbar_extension	lumbar_bending	lumbar_rotation
      0.00000000	     30.87992662	      3.82760945	      3.44626392	     -0.59372427	      1.06321038	     -0.10681715	    -41.58814295	     -1.12920536	    -22.90897896	      2.92946278	     10.14053947	     17.11334578	      0.00000000	    -40.21757558	     -0.04531089	    -13.11071812	      2.28975870	      7.66189412	     12.91287177	      0.00000000	    -37.63074248	     -2.46076642	     -0.00852337
      0.02000000	     30.87337332	      3.82279181	      3.44699044	     -0.59373947	      1.06319867	     -0.10688736	    -41.58723545	     -1.13104017	    -22.89604677	      2.94293891	     10.12581057	     17.12893652	      0.00000000	    -40.22269619	     -0.04442075	    -13.09447645	      2.31186971	      7.65277116	     12.91043271	      0.00000000	    -37.62386283	     -2.46035867	     -0.02155591
      0.04000000	     30.87377352	      3.82032248	      3.44831862	     -0.59377734	      1.06319814	     -0.10693785	    -41.58665025	     -1.13206915	    -22.89610704	      2.94412182	     10.12571498	     17.12907894	      0.00000000	    -40.22283046	     -0.04448434	    -13.09415773	      2.31240789	      7.65239977	     12.91022194	      0.00000000	    -37.62394175	     -2.46177659	     -0.02175018
      0.06000000	     30.86404914	      3.81374497	      3.45361569	     -0.59376403	      1.06319563	     -0.10699121	    -41.58914221	     -1.12543777	    -22.88481530	      2.96856795	     10.10143651	     17.14773219	      0.00000000	    -40.23442077	     -0.04784703	    -13.05899779	      2.35509684	      7.60931906	     12.88017762	      0.00000000	    -37.60870603	     -2.45534911	     -0.03661774
      0.08000000	     30.86576289	      3.81214166	      3.45355849	     -0.59380266	      1.06320342	     -0.10701882	    -41.58854460	     -1.12529036	    -22.88533338	      2.96902815	     10.10143065	     17.14749293	      0.00000000	    -40.23447485	     -0.04775933	    -13.05852169	      2.35533413	      7.60919719	     12.87974103	      0.00000000	    -37.60774120	     -2.45678197	     -0.03674251
      0.10000000	     30.86306658	      3.80612230	      3.44504873	     -0.59380290	      1.06319764	     -0.10704413	    -41.58267654	     -1.12571062	    -22.89697870	      2.96947865	     10.08893684	     17.14380930	      0.00000000	    -40.24438893	     -0.04362215	    -13.04458146	      2.37896599	      7.60675734	     12.86193517	      0.00000000	    -37.59688257	     -2.45968115	     -0.03977745
      0.12000000	     30.86462395	      3.80471491	      3.44608279	     -0.59382727	      1.06319247	     -0.10707933	    -41.58223070	     -1.12557383	    -22.89673704	      2.96962564	     10.08858356	     17.14408556	      0.00000000	    -40.24434438	     -0.04347287	    -13.04442517	      2.37927066	      7.60671121	     12.86163199	      0.00000000	    -37.59572426	     -2.46148172	     -0.03987909
      0.14000000	     30.86411419	      3.80220275	      3.44668040	     -0.59381483	      1.06318499	     -0.10708506	    -41.58131270	     -1.12322492	    -22.89405462	      2.96689362	     10.08297340	     17.14781088	      0.00000000	    -40.24723267	     -0.04631925	    -13.04379080	      2.38240798	      7.60794442	     12.85885966	      0.00000000	    -37.58813419	     -2.47116093	     -0.04261199
      0.16000000	     30.84472949	      3.79041732	      3.43714641	     -0.59376321	      1.06316576	     -0.10715044	    -41.56488896	     -1.12774113	    -22.88450594	      2.97512108	     10.06274460	     17.17264835	      0.00000000	    -40.24495818	     -0.04039874	    -13.04106145	      2.40889168	      7.61113534	     12.84371593	      0.00000000	    -37.55925955	     -2.46921992	     -0.06136344
      0.18000000	     30.78648548	      3.77264412	      3.43043326	     -0.59369198	      1.06313147	     -0.10723529	    -41.49497558	     -1.13428682	    -22.89309924	      2.95689989	     10.09144438	     17.23384430	      0.00000000	    -40.19318947	     -0.03723985	    -13.02787318	      2.42321060	      7.58989846	     12.78756608	      0.00000000	    -37.48446071	     -2.46065307	     -0.04495001
      0.20000000	     30.78792694	      3.76908645	      3.42938063	     -0.59366700	      1.06313895	     -0.10729483	    -41.49877987	     -1.13615260	    -22.89480257	      2.95618771	     10.09335929	     17.23327400	      0.00000000	    -40.19450212	     -0.03679238	    -13.02689476	      2.41811611	      7.59033254	     12.78699371	      0.00000000	    -37.47723263	     -2.46148576	     -0.04514762
      0.22000000	     30.78980082	      3.76572576	      3.42848045	     -0.59362204	      1.06314380	     -0.10736790	    -41.50459487	     -1.13842456	    -22.89634080	      2.95613399	     10.09647120	     17.23232171	      0.00000000	    -40.19752803	     -0.03474757	    -13.02555501	      2.41278820	      7.59207559	     12.78630893	      0.00000000	    -37.46659666	     -2.46046400	     -0.04543109
      0.24000000	     30.78993595	      3.76402352	      3.42397111	     -0.59352128	      1.06312525	     -0.10743466	    -41.51953997	     -1.14029912	    -22.89926197	      2.97235490	     10.11577826	     17.22935906	      0.00000000	    -40.20666551	     -0.02811461	    -13.02141290	      2.41300506	      7.61666232	     12.77630753	      0.00000000	    -37.44733900	     -2.46362127	     -0.04908861
      0.26000000	     30.79386354	      3.76200910	      3.42407917	     -0.59345121	      1.06312633	     -0.10749412	    -41.52604647	     -1.14243551	    -22.89815486	      2.96675904	     10.11501103	     17.22920888	      0.00000000	    -40.21258065	     -0.02782260	    -13.01928239	      2.40627959	      7.61787299	     12.77494545	      0.00000000	    -37.43488131	     -2.46506094	     -0.05035440
      0.28000000	     30.80450756	      3.76285189	      3.41240796	     -0.59337145	      1.06311215	     -0.10755299	    -41.54452872	     -1.15341826	    -22.88397874	      2.97114846	     10.11070149	     17.22936575	      0.00000000	    -40.22663814	     -0.01646336	    -13.00877709	      2.39560620	      7.65194648	     12.74643465	      0.00000000	    -37.42862209	     -2.47315297	     -0.06361528
      0.30000000	     30.80915769	      3.75964282	      3.40760551	     -0.59328413	      1.06310126	     -0.10761745	    -41.55321739	     -1.15577139	    -22.88431892	      2.96759585	     10.11033152	     17.22764988	      0.00000000	    -40.23188800	     -0.01457066	    -13.00630271	      2.38393987	      7.65163688	     12.74472991	      0.00000000	    -37.41509276	     -2.47167434	     -0.06379112
      0.32000000	     30.85012707	      3.76027154	      3.37572787	     -0.59322516	      1.06310664	     -0.10765236	    -41.60977412	     -1.17250693	    -22.81792609	      2.98786848	     10.10594930	     17.15430119	      0.00000000	    -40.27302316	      0.00684785	    -13.00885409	      2.36115701	      7.67358052	     12.69731798	      0.00000000	    -37.44369840	     -2.48567122	     -0.03228390
      0.34000000	     30.85350642	      3.75704970	      3.37223783	     -0.59312240	      1.06310638	     -0.10771780	    -41.61836386	     -1.17521440	    -22.81824249	      2.98404800	     10.10383691	     17.15326167	      0.00000000	    -40.27924847	      0.00893479	    -13.00817858	      2.35058673	      7.67463210	     12.69737903	      0.00000000	    -37.42757165	     -2.48403949	     -0.03207683
      0.36000000	     30.85659305	      3.75363531	      3.36836764	     -0.59303134	      1.06310921	     -0.10777825	    -41.62589077	     -1.17878156	    -22.81880929	      2.98144208	     10.10091815	     17.15203493	      0.00000000	    -40.28600055	      0.01094569	    -13.00828647	      2.34197898	      7.67742765	     12.69717989	      0.00000000	    -37.41221401	     -2.48391096	     -0.03133699
      0.38000000	     30.85941432	      3.75024479	      3.36468114	     -0.59294909	      1.06310998	     -0.10783272	    -41.63203625	     -1.18225348	    -22.81959778	      2.97816993	     10.09685141	     17.15090885	      0.00000000	    -40.29389364	      0.01259530	    -13.00893959	      2.33704794	      7.68081718	     12.69667293	      0.00000000	    -37.39694181	     -2.48630285	     -0.03086989
      0.40000000	     30.85772392	      3.74478122	      3.34719322	     -0.59283004	      1.06309563	     -0.10789665	    -41.63748967	     -1.19300143	    -22.82235549	      2.98345383	     10.07796114	     17.14912633	      0.00000000	    -40.31517162	      0.02749983	    -13.01889343	      2.35971097	      7.70017247	     12.69237049	      0.00000000	    -37.37323975	     -2.49525087	     -0.02893342
      0.42000000	     30.86016543	      3.74233973	      3.34965674	     -0.59276805	      1.06309881	     -0.10796679	    -41.64304627	     -1.19476078	    -22.82073713	      2.97871046	     10.07690828	     17.14967577	      0.00000000	    -40.32110772	      0.02821411	    -13.01995770	      2.35732328	      7.69877414	     12.69193658	      0.00000000	    -37.36197081	     -2.49704749	     -0.02832007
      0.44000000	     30.86002712	      3.73457393	      3.34492250	     -0.59266139	      1.06308875	     -0.10806039	    -41.65216218	     -1.19748211	    -22.81641340	      2.98293700	     10.08165390	     17.15379800	      0.00000000	    -40.34558775	      0.03644155	    -13.03294812	      2.39076185	      7.69599661	     12.68886152	      0.00000000	    -37.34407523	     -2.49356755	     -0.02807811
      0.46000000	     30.86193716	      3.73126190	      3.34566368	     -0.59262046	      1.06309212	     -0.10813145	    -41.65663475	     -1.19914639	    -22.81550479	      2.98073263	     10.08254454	     17.15426734	      0.00000000	    -40.34937772	      0.03765812	    -13.03312905	      2.38761863	      7.69340065	     12.68898034	      0.00000000	    -37.33794783	     -2.49218323	     -0.02735453
